# xmcd CD database file
#
# Track frame offsets:
#	150
#	25452
#	42772
#	65417
#	73535
#	82125
#	97785
#	124250
#	143587
#	150805
#	169992
#	176800
#	193567
#
# Disc length: 2876 seconds
#
# Revision: 0
# Processed by: cddbd v1.5.2PL0 Copyright (c) Steve Scherf et al.
# Submitted via: CDex 1.51
#
DISCID=a90b3a0d
DTITLE=Sellam - Renne - Abidjan
DYEAR=1998
DGENRE=Jazz
TTITLE0=Sortilège
TTITLE1=Nomade
TTITLE2=Anamalo
TTITLE3=Iya
TTITLE4=Mr Ali
TTITLE5=L'harmattan
TTITLE6=Fiançailles
TTITLE7=Niana Suma
TTITLE8=Chico
TTITLE9=L'amiral
TTITLE10=Douao
TTITLE11=Ema di Lélé
TTITLE12=Le Mage
EXTD=YEAR: 1998
EXTT0=
EXTT1=
EXTT2=
EXTT3=
EXTT4=
EXTT5=
EXTT6=
EXTT7=
EXTT8=
EXTT9=
EXTT10=
EXTT11=
EXTT12=
PLAYORDER=
